<?xml version="1.0" encoding="UTF-8" standalone="no"?>
<svg
   version="1.0"
   width="1500.000000pt"
   height="1687.000000pt"
   viewBox="0 0 1500.000000 1687.000000"
   preserveAspectRatio="xMidYMid meet"
   id="svg44"
   sodipodi:docname="logo-azul.svg"
   inkscape:version="1.3.2 (091e20e, 2023-11-25)"
   xmlns:inkscape="http://www.inkscape.org/namespaces/inkscape"
   xmlns:sodipodi="http://sodipodi.sourceforge.net/DTD/sodipodi-0.dtd"
   xmlns="http://www.w3.org/2000/svg"
   xmlns:svg="http://www.w3.org/2000/svg">
  <defs
     id="defs44">
    <rect
       x="423.45343"
       y="649.53451"
       width="1281.126"
       height="287.08707"
       id="rect48" />
    <rect
       x="423.45343"
       y="796.66663"
       width="1460.5555"
       height="344.50449"
       id="rect45" />
    <rect
       x="409.09908"
       y="825.37534"
       width="1198.5885"
       height="161.48648"
       id="rect44" />
  </defs>
  <sodipodi:namedview
     id="namedview44"
     pagecolor="#ffffff"
     bordercolor="#111111"
     borderopacity="1"
     inkscape:showpageshadow="0"
     inkscape:pageopacity="0"
     inkscape:pagecheckerboard="1"
     inkscape:deskcolor="#d1d1d1"
     inkscape:document-units="pt"
     inkscape:zoom="0.2394014"
     inkscape:cx="987.88059"
     inkscape:cy="1177.9379"
     inkscape:window-width="1680"
     inkscape:window-height="997"
     inkscape:window-x="1512"
     inkscape:window-y="25"
     inkscape:window-maximized="1"
     inkscape:current-layer="svg44" />
  <path
     d="m 709,87.4 c -16.8,6.2 -36.3,13.7 -43.5,16.6 -25.8,10.4 -52.4,24.5 -67.9,35.9 -3.9,2.8 -7.2,4.9 -7.4,4.6 -0.3,-0.2 0.1,-6.2 0.8,-13.3 1.1,-10.8 1.1,-13.3 -0.1,-15.8 -1.7,-3.5 -6.2,-4.3 -10.8,-1.9 -1.7,0.8 -10.3,8.4 -19.2,16.8 -18.3,17.3 -27.6,24.7 -34.4,27.3 -4.2,1.5 -5.6,1.6 -11.6,0.6 -21.2,-3.7 -40.8,1.6 -59.8,15.9 -14.6,10.9 -27.7,28.7 -32.1,43.6 -1.2,3.7 -1.7,4.4 -4.9,5 -5.8,1.1 -20.5,0.8 -34.7,-0.6 -15.9,-1.7 -28.4,-1.1 -34.5,1.6 -11.2,5 -61.5,50.9 -116.4,106.5 -20.6,20.7 -30.9,31.9 -32.7,35.3 -1.5,2.8 -4.9,11.6 -7.6,19.6 -2.7,8 -6.3,17.2 -8,20.5 -6.5,12.8 -20.9,28.4 -58.7,63.4 -37.7,34.9 -49,47.2 -62.8,68 -24.6,37.3 -36.7,77.7 -50.2,168.5 -4.8,32.4 -9.9,64 -11.6,71.2 -0.9,4.1 -0.7,4.7 7.3,19.5 28.9,54.2 47.2,104.8 55.8,154.5 2.8,15.7 2.1,20.1 -3.2,22.9 -3.1,1.6 -9,1.5 -13.2,-0.1 -1.8,-0.8 -1.8,0.1 -1.4,23.6 0.5,20.5 0.9,25.6 2.6,32.1 2.8,10.4 9.9,27.1 40.4,95.8 37.1,83.5 51.2,118 64.6,158.3 4.8,14.3 5.9,16.7 7.7,16.7 3.6,0.1 10.9,4 15.3,8.3 6.4,6.1 9,12.3 12.3,28.1 8.3,40 20.3,65.7 40.3,86.5 9.2,9.5 17,15.3 27.1,20.3 16.5,8.3 24.7,9.8 52.5,9.8 11.3,0 23.4,0.5 27,1.1 14,2.2 24.6,7.6 39.1,19.7 11.1,9.2 32.2,18.3 50.7,21.8 4.8,0.9 14.3,1.7 21.2,1.9 l 12.5,0.2 40.5,21 c 42.5,22.1 60.5,32.1 77.1,42.8 5.5,3.6 10.8,6.5 11.9,6.5 3.4,0 7.4,-2 9.8,-4.8 3.3,-3.9 4.2,-1.7 4.2,10.5 0,8.5 0.3,10.3 1.5,10.3 0.8,0 10.6,-1.1 21.8,-2.5 85.7,-10.5 145,-9.6 194.5,2.9 5.3,1.4 10.9,2.9 12.3,3.5 2,0.7 4.2,0.5 9,-1 22.4,-7.1 47.9,-1.2 81.3,18.5 7,4.2 8.4,4.6 16.5,5.2 8.2,0.6 9,0.5 11,-1.5 2.5,-2.5 2.6,-4.9 0.6,-9.8 -0.8,-1.9 -1.5,-3.7 -1.5,-3.9 0,-0.9 12.3,-6.4 19.5,-8.7 12.4,-3.9 43.1,-10 46.8,-9.3 3.8,0.7 6.8,3.3 14,12.4 3,3.7 7,8.1 8.8,9.9 3.1,3 9.4,6.3 11.9,6.3 0.6,0 1,-3.9 1,-10.5 0,-13.9 1.4,-20.1 5.4,-24.1 4.8,-4.8 9.8,-5.8 26.3,-5 l 14.3,0.6 -0.2,-13.2 c -0.2,-11.1 0.1,-13.9 1.6,-16.8 1,-1.9 7.1,-8.9 13.5,-15.5 6.4,-6.6 17.8,-18.7 25.4,-26.7 12.9,-13.8 26.2,-25.1 33.3,-28.6 l 3.2,-1.5 6.4,6.9 c 3.4,3.8 8.9,9.6 12.1,12.9 l 5.9,6 -0.5,-7.5 c -0.6,-10.9 -5.2,-20.4 -15.1,-30.9 -7.5,-8.1 -9.8,-12.3 -7.8,-14.3 1.9,-1.9 27.7,-9.9 33.8,-10.5 7.2,-0.7 11.5,0.6 18.5,5.3 2.8,1.9 5.2,3.4 5.4,3.4 0.2,0 -1,-2.4 -2.6,-5.3 -3.6,-6.5 -3.7,-10 -0.4,-13.3 5.2,-5.2 10.8,-6.8 26.5,-7.4 11.2,-0.4 15.4,-1 18.3,-2.4 8,-3.9 13.4,-14.3 14.4,-27.5 l 0.6,-7.5 18,-21.5 c 42.5,-51.1 68.8,-91.7 96.6,-149.1 14.1,-29.3 35.7,-80.7 34.9,-83.2 -0.5,-1.5 -13.6,8.9 -24.6,19.6 -11.3,11 -18.9,20.2 -29.6,36 -8,11.7 -11,14.6 -16.4,15.3 -2.9,0.4 -4.6,-0.1 -7.4,-2.1 -2.1,-1.4 -3.9,-2.2 -4.2,-1.8 -0.2,0.4 -2.5,7.4 -5,15.6 -4.5,14.5 -6.4,19.3 -5.3,13.1 0.3,-1.7 0.9,-7.4 1.2,-12.9 0.6,-8.1 0.5,-9.7 -0.6,-9 -0.8,0.4 -8.4,6.2 -16.9,12.9 -88.4,69.1 -174.4,131.5 -242.5,176 -26,17 -32.9,20.5 -40.6,20.5 -4.2,0 -6.5,-0.6 -9,-2.3 -3.1,-2 -9.1,-9.7 -10.1,-12.9 -0.3,-0.8 -4.1,1.9 -9.7,6.7 -10.5,9.1 -12.5,10.4 -16.3,10.5 -5.1,0 -7.5,-4.7 -6.5,-12.8 l 0.5,-4.7 h -12.3 c -14.4,0 -15.1,0.4 -19.6,10.2 -1.6,3.5 -3.5,6.3 -4.3,6.3 -0.8,0 -2.8,-2.5 -4.5,-5.6 -4.9,-8.6 -6.2,-7.5 -8.5,7.6 -1.8,11.4 -2,12.2 -2.8,8.6 -1,-4.7 -2.4,-6.6 -4.9,-6.6 -2.5,0 -8.1,5.8 -10.5,10.9 l -2,4.3 -5.5,-8.3 c -5.6,-8.7 -16.4,-21.9 -17.8,-21.9 -0.5,0 0.2,2.8 1.4,6.3 3.2,8.7 4,14.7 2.3,17 -1.3,1.8 -1.6,1.7 -5,-1.8 l -3.5,-3.7 -0.8,8.9 c -0.9,11.8 -1.2,12.9 -4.3,14.2 -1.5,0.6 -6.6,5 -11.4,9.6 -4.8,4.7 -9.9,9 -11.2,9.5 -1.3,0.5 -8,1.4 -14.8,2 -27.7,2.4 -48,5.6 -71.2,11.2 l -12.8,3.1 -15.3,-3.7 c -54.8,-13.2 -105.9,-21.3 -166,-26.1 -47.5,-3.8 -79.6,-14 -122.3,-38.8 l -12.2,-7.1 3.6,-1.8 c 6.3,-3.1 10.1,-6.6 12.8,-12 2.8,-5.7 3.2,-8.2 1.6,-12.4 l -1.1,-2.7 -1.8,3.3 c -2.7,5.2 -9.8,8.5 -24.3,11.5 l -12.8,2.7 -23.3,-22.4 c -12.8,-12.2 -42.2,-39.9 -65.2,-61.3 -54.9,-51 -79,-74.1 -107,-102.6 -22.7,-23.1 -49.4,-52.3 -56.8,-62.2 -9.8,-13 -17.9,-29.7 -35.5,-73.3 -12.6,-31 -18.7,-45 -20.2,-45.9 -0.4,-0.2 -2.2,1.1 -4,3 -6.4,6.6 -13,3.4 -18.4,-8.8 -2.9,-6.5 -3.3,-11.2 -1.2,-16.1 2.8,-6.7 8.7,-8.4 15,-4.1 3.2,2.2 3.6,2.2 3.6,0.7 0,-1 -3.4,-25.4 -7.5,-54.2 -4.1,-28.8 -7.5,-54.7 -7.5,-57.4 0.1,-8.3 1.7,-13.2 10,-30.6 4.3,-9.1 8.4,-18.5 8.9,-21 0.6,-2.5 5.6,-45.5 11.1,-95.5 10,-92.1 11.7,-104 17.2,-126.5 19.3,-79.3 59.8,-144.9 134.6,-218.1 23.1,-22.7 84.3,-79 92.2,-85 3.6,-2.7 12.1,-8.2 19,-12.2 6.9,-4.1 29.6,-17.5 50.5,-29.9 81.8,-48.5 108.7,-62.1 150.5,-76.3 45.8,-15.5 79.9,-20.6 140.5,-20.9 35.7,-0.1 37.2,-0.2 42.5,-2.4 6.7,-2.6 12.1,-7.9 15.1,-14.7 1.9,-4.1 2.3,-7.4 2.7,-18.7 0.2,-7.5 0.1,-15.7 -0.2,-18.2 -0.7,-4.3 -0.8,-4.5 -3.2,-3.6 -1.4,0.6 -4.8,1 -7.5,1 -6.5,0 -12.3,-3 -23,-11.8 -11.4,-9.3 -13.4,-10.6 -21,-13.6 -3.6,-1.4 -6.7,-2.6 -7,-2.6 -0.2,0 -14.1,5.1 -30.9,11.4 z m -584.6,965.7 c 3.7,2.9 6.7,8.5 14.7,27.1 6.7,15.7 9.4,21.2 13.3,27 l 1.8,2.7 -4.1,-1.7 c -6.3,-2.6 -13.3,-8.3 -15.8,-12.7 -1.3,-2.5 -2.6,-7.3 -3.2,-12.5 -0.9,-7.2 -1.9,-10.2 -6.6,-19.6 -3,-6 -5.5,-11.3 -5.5,-11.7 0,-1.4 2.8,-0.7 5.4,1.4 z m -19.7,0.7 c 1,0.6 10.3,28.4 10.3,30.7 0,0.4 -3.8,-4 -8.5,-9.8 -4.6,-5.8 -8.9,-10.8 -9.5,-11.2 -1.8,-1.1 -1.1,-5.5 1.5,-8 2.5,-2.6 4.1,-3 6.2,-1.7 z"
     id="path1"
     style="fill:#5e7a97;stroke:none;stroke-width:0.1;fill-opacity:1" />
  <path
     d="m 968.5,125.9 c -13.9,0.5 -17.7,0.9 -20.8,2.5 -4.3,2.1 -8.9,7.3 -11.5,12.8 -1.9,4.2 -2.2,4.4 -6.1,2.4 -5.6,-3 -15,-3.8 -31.3,-2.8 -13.2,0.8 -16.5,1.4 -21,3.4 -7.1,3.3 -11.8,7.5 -15.4,14 -2.6,4.8 -2.9,6.2 -2.9,14.3 0,8 0.3,9.6 2.9,14.5 1.6,3 5.6,8.3 9,11.8 21,21.9 54,35.2 94.9,38.2 l 14.9,1.1 11.6,6.6 c 51.8,29.4 96.1,58.9 192.2,127.8 61.9,44.4 70.6,50.4 75.5,51.7 6.9,1.8 14.8,-0.2 30.1,-7.7 7.3,-3.6 13.4,-6.5 13.7,-6.5 0.2,0 0.7,7.8 0.9,17.2 0.5,15.1 0.9,18.8 3.6,28.8 3.3,12.6 15.6,45.2 20.4,54.2 4.6,8.6 12.2,16.4 25.1,25.6 17,12.1 23.6,20.9 27.8,36.9 3.5,13.7 2.4,35.2 -2.6,49.4 -0.8,2.3 -1.5,5 -1.5,5.9 0,2.2 11.5,24.7 18.9,37.3 11.2,18.9 30.7,41.7 41.9,49.2 3.4,2.2 6.6,5.1 7.3,6.5 0.6,1.4 1.3,5.9 1.4,10 0.4,12 3.9,18 10.4,18 2.9,0 4.3,-0.9 8.3,-5 2.6,-2.7 4.8,-4.6 4.8,-4.2 0,0.4 -1.3,12.5 -2.9,26.7 -3.6,32.5 -4.5,49.1 -3.1,62.5 1.1,12 2.9,22 3.9,22 0.4,0 1.2,-6.9 1.9,-15.3 4.3,-53.7 14.2,-105.6 26.1,-136.2 1.6,-4.1 2.5,-7.5 1.9,-7.5 -3.9,0 -9.5,5.4 -16.1,15.6 -4.6,6.9 -7.7,9.4 -11.9,9.4 -2,0 -2,-0.4 -1.5,-6.8 0.7,-9.1 -0.9,-52.9 -2.8,-73.2 -0.9,-9.1 -4.5,-40.3 -8.2,-69.5 l -6.6,-53 -76.5,-122.4 c -65,-104 -77.9,-124 -85.3,-132.6 -49.7,-57.1 -120.7,-100.2 -205,-124.3 -34.2,-9.8 -53.4,-11.3 -116.4,-9.3 z"
     id="path2"
     style="fill:#5e7a97;stroke:none;stroke-width:0.1;fill-opacity:1" />
  <path
     d="m 671.62837,720.64419 c -7.07729,1.94431 -10.67395,4.61773 -14.85071,10.69369 -3.94472,5.58989 -6.38117,13.73167 -7.6574,24.30385 l -0.69613,7.04811 h -6.96127 c -6.49719,0 -6.84525,0.12152 -6.49719,2.67343 0.34806,2.43038 1.16021,2.79494 6.49719,3.1595 3.24859,0.24303 6.0331,0.72911 6.0331,1.21519 0,0.48607 -2.66849,23.08865 -5.80106,50.30896 -3.24859,27.22031 -5.80106,50.552 -5.80106,52.01023 0,2.79494 3.59666,3.40254 5.68504,0.85063 1.97236,-2.67342 4.40881,-17.86332 9.39772,-61.00265 2.55246,-22.1165 4.87289,-40.70894 5.22095,-41.55958 0.34807,-0.97215 4.40881,-1.57975 12.41427,-1.82278 11.37008,-0.36456 11.95019,-0.48608 12.29825,-3.1595 0.34807,-2.67343 0.23204,-2.67343 -11.95018,-2.67343 h -12.41427 l 0.81214,-7.04811 c 1.0442,-9.96458 2.55247,-15.06839 5.453,-19.68612 4.64085,-7.04811 8.35353,-9.11394 16.70706,-9.11394 4.06074,0 7.42536,-0.36456 7.42536,-0.72912 0,-0.48607 0.34806,-1.70127 0.69612,-2.67342 1.16021,-3.28102 -8.46955,-4.98229 -16.01093,-2.79494 z"
     id="path3"
     style="fill:#080c10;fill-opacity:1;stroke:none;stroke-width:0.118738" />
  <path
     d="m 522.30907,723.31761 c -1.39226,1.82279 -2.43645,4.25317 -2.43645,5.46837 0,3.40254 4.17676,7.16963 8.00546,7.16963 6.38117,0 9.39772,-8.50634 4.75687,-13.36711 -3.24859,-3.40254 -7.42535,-3.03798 -10.32588,0.72911 z"
     id="path4"
     style="fill:#080c10;fill-opacity:1;stroke:none;stroke-width:0.118738" />
  <path
     d="m 1029.1352,730.45266 c -2.0171,2.66932 -5.7991,4.07746 -9.5811,9.29851 -2.7855,3.84553 11.905,-3.08773 16.8931,-5.84791 6.2194,-3.44152 14.9718,-10.14288 2.3533,-7.95984 -6.3566,1.0997 -5.0848,1.5738 -9.6653,4.50924 z"
     id="path4-9"
     style="fill:#080c10;fill-opacity:1;stroke:none;stroke-width:0.172953"
     sodipodi:nodetypes="csssc" />
  <path
     d="m 1127.5918,722.22394 c -3.2486,3.88861 -3.4807,7.04811 -0.8122,10.45065 4.6409,6.19748 12.6463,3.03798 12.6463,-4.98229 0,-6.44051 -8.0054,-10.08609 -11.8341,-5.46836 z"
     id="path5"
     style="fill:#080c10;fill-opacity:1;stroke:none;stroke-width:0.118738" />
  <path
     d="m 268.10657,722.71002 c 0,1.9443 -13.80652,119.93948 -14.50265,124.67873 l -0.69612,4.01013 h 34.92238 34.80637 v -3.64558 -3.64557 h -29.58541 c -27.38101,0 -29.58541,-0.12152 -29.58541,-2.18735 0,-1.09367 1.27623,-13.00256 2.90053,-26.36967 1.62429,-13.36712 2.90053,-24.66841 2.90053,-25.276 0,-0.48608 11.25406,-0.85064 24.94456,-0.85064 20.7678,0 24.94456,-0.24304 24.94456,-1.70127 0,-0.97215 0.34806,-2.5519 0.69613,-3.64557 0.5801,-1.70127 -1.97236,-1.94431 -24.48048,-1.94431 h -25.29262 l 0.69612,-4.61773 c 0.34807,-2.43039 1.85634,-14.46079 3.2486,-26.73423 l 2.55246,-22.1165 h 29.93348 29.81745 l 0.46409,-3.64558 0.5801,-3.64558 H 302.6809 c -24.71252,0 -34.57433,0.36456 -34.57433,1.33672 z"
     id="path6"
     style="fill:#080c10;fill-opacity:1;stroke:none;stroke-width:0.118738" />
  <path
     d="m 1076.4264,728.2999 c -0.3481,0.6076 -1.6243,7.29115 -3.0166,14.94687 -3.7126,21.14434 -3.0165,19.44307 -8.0054,19.44307 -6.3812,0 -9.5138,1.21519 -9.5138,3.64558 0,2.67342 2.2044,3.64558 8.3536,3.64558 h 4.7568 l -0.6961,5.1038 c -0.3481,2.91647 -2.0884,18.10637 -3.8287,33.90387 -2.7845,24.30384 -3.0165,29.52917 -1.8563,33.66083 2.9005,9.96457 14.0385,12.88103 25.8727,6.56203 6.1491,-3.28102 7.7734,-5.46836 5.9171,-8.50634 -0.8122,-1.21519 -2.0884,-0.85064 -6.1491,1.57975 -5.453,3.1595 -10.2099,3.88861 -13.9226,1.70127 -4.7569,-2.67343 -4.8729,-5.95445 -0.8121,-40.83046 l 3.7126,-33.17475 h 12.4143 c 10.2099,0 12.5303,-0.36456 13.1104,-1.94431 1.8564,-5.10381 1.2762,-5.34685 -12.0662,-5.34685 -12.6463,0 -12.7623,0 -12.1822,-2.79494 0.232,-1.45823 1.0442,-8.14179 1.7403,-14.82535 0.6961,-6.68355 1.5083,-13.36711 1.7403,-14.94686 0.5801,-2.18735 0.116,-2.67342 -2.2044,-2.67342 -1.6243,0 -3.1326,0.36455 -3.3646,0.85063 z"
     id="path7"
     style="fill:#080c10;fill-opacity:1;stroke:none;stroke-width:0.118738" />
  <path
     d="m 379.13888,759.16578 c -20.07167,4.98229 -35.61851,29.52918 -35.61851,56.38493 0,15.7975 5.68504,28.31398 15.3148,33.66082 6.96127,3.88862 23.55231,4.01014 30.6296,0.12152 7.30934,-4.13165 17.86727,-13.48863 17.17114,-15.43294 -1.27623,-3.40254 -4.06074,-3.03798 -8.35353,0.97215 -10.09384,9.60002 -23.08822,12.88104 -33.06604,8.26331 -21.92802,-10.20761 -15.08276,-61.00265 10.09384,-74.6128 8.58557,-4.61774 20.88382,-2.79495 28.30918,4.25317 l 2.55247,2.5519 2.43644,-2.43038 2.32043,-2.55191 -4.64085,-4.37469 c -4.64085,-4.37469 -14.15459,-8.26331 -19.72361,-8.02027 -1.6243,0.12152 -4.98891,0.6076 -7.42536,1.21519 z"
     id="path8"
     style="fill:#080c10;fill-opacity:1;stroke:none;stroke-width:0.118738" />
  <path
     d="m 454.55267,759.04427 c -21.81199,5.7114 -36.6627,30.25828 -35.38647,58.32923 0.34807,8.38482 1.16021,11.90888 3.71268,17.37725 10.20987,21.99498 37.59088,23.81776 55.11008,3.88861 21.46393,-24.6684 19.60759,-67.56469 -3.48064,-77.65079 -5.56902,-2.43038 -14.61867,-3.28102 -19.95565,-1.9443 z m 13.69051,7.41267 c 5.91708,1.70127 12.41427,8.74938 14.38663,15.67598 1.85634,6.56204 1.85634,21.87346 0,29.89373 -3.01655,12.88104 -11.60212,25.8836 -20.07167,30.50133 -1.85634,0.97215 -6.38117,2.18734 -10.09385,2.43038 -12.99437,1.33671 -21.46392,-6.319 -24.36445,-21.99498 -2.90053,-14.70383 3.13257,-36.94185 12.64631,-47.27098 8.35353,-9.11394 17.40318,-12.15192 27.49703,-9.23546 z"
     id="path9"
     style="fill:#080c10;fill-opacity:1;stroke:none;stroke-width:0.118738" />
  <path
     d="m 593.77814,759.16578 c -9.97783,2.43039 -19.72361,10.45066 -27.38101,22.48106 -4.06074,6.44052 -4.17677,6.19748 -2.43645,-9.11394 1.16022,-10.93673 0.46409,-13.48863 -3.59665,-13.48863 -1.27624,0 -2.43645,1.09367 -2.66849,2.67342 -0.69613,3.28102 -9.97783,85.91409 -9.97783,88.10144 0,0.97215 1.6243,1.57975 3.94472,1.57975 4.64085,0 4.17677,1.70127 7.19332,-27.34183 2.08838,-20.9013 3.48064,-26.00511 10.32589,-37.06336 8.46955,-13.73167 17.63522,-20.65827 27.26498,-20.65827 9.2817,0 13.92255,6.19748 13.92255,18.47092 0,5.46837 -4.29278,46.78491 -6.38117,62.09633 l -0.5801,4.61773 4.29278,-0.36456 4.40881,-0.36456 3.59666,-32.81019 c 3.94472,-35.11906 3.8287,-43.26084 -0.34807,-50.79504 -3.8287,-6.80507 -12.76233,-10.20761 -21.57994,-8.02027 z"
     id="path10"
     style="fill:#080c10;fill-opacity:1;stroke:none;stroke-width:0.118738" />
  <path
     d="m 720.93739,759.04427 c -20.88382,4.61773 -35.61851,27.70638 -35.61851,55.89884 0,9.84306 0.34806,12.51648 2.90053,18.22789 5.91708,13.48863 14.03857,18.83548 28.30918,18.83548 7.88944,0 10.20986,-0.6076 15.54684,-3.40254 16.35899,-9.11394 26.8009,-29.40766 26.8009,-52.49631 0,-11.90888 -1.27623,-16.89117 -6.14912,-24.54688 -6.38117,-10.0861 -19.49157,-15.18991 -31.78982,-12.51648 z m 12.64632,7.29115 c 13.22641,3.88861 19.49156,19.68611 16.12694,40.95198 -4.4088,26.73423 -21.69596,42.41021 -40.95549,36.82033 -5.45299,-1.57975 -11.71814,-9.23547 -13.6905,-16.4051 -2.08838,-7.65571 -0.92817,-26.24815 1.97236,-34.87602 4.52483,-12.88104 12.64631,-22.35954 22.04403,-26.00511 5.33698,-1.94431 8.93364,-2.06583 14.50266,-0.48608 z"
     id="path11"
     style="fill:#080c10;fill-opacity:1;stroke:none;stroke-width:0.118738" />
  <path
     d="m 875.82572,759.53034 c -9.2817,2.67343 -15.77889,8.14179 -23.43629,20.05068 -4.75687,7.29115 -4.75687,7.04811 -3.01655,-8.38483 1.04419,-9.96458 0.23204,-12.51648 -3.94472,-11.90889 -2.2044,0.36456 -2.66849,2.79495 -7.30934,42.2887 -6.14912,52.61782 -6.0331,49.82288 -1.04419,49.82288 h 3.8287 l 2.55247,-24.06081 c 2.43645,-22.35954 2.90053,-24.54688 6.96127,-33.66082 8.35353,-18.59245 17.75125,-27.34183 29.23735,-27.34183 7.19332,0 10.55793,3.7671 11.13804,12.39496 0.34806,3.52406 -1.04419,20.41523 -3.01655,37.67096 -1.97237,17.13421 -3.59666,31.95956 -3.59666,33.05323 0,1.45823 1.16021,1.94431 4.06074,1.94431 2.2044,0 4.06074,-0.36456 4.06074,-0.97215 0,-0.48608 1.27624,-12.39497 2.90053,-26.36968 2.55247,-22.35953 3.36462,-26.49119 6.38117,-33.05323 9.2817,-19.80763 27.14897,-30.50132 36.66271,-21.87346 4.64084,4.25317 4.75687,11.90889 0.5801,48.60769 -1.97236,17.25573 -3.59666,31.83804 -3.59666,32.44564 0,0.72911 1.85634,1.21519 4.06075,1.21519 4.75687,0 4.06074,2.79494 8.12148,-34.87602 3.48064,-32.56715 3.59666,-41.68109 0.69613,-48.60769 -3.48064,-7.77723 -11.02202,-10.93673 -20.88382,-8.74939 -8.23751,1.82279 -18.09931,9.72154 -23.90037,19.20004 l -4.64085,7.65571 -0.69613,-8.2633 c -0.34806,-4.61773 -1.50827,-10.0861 -2.55246,-12.15193 -3.01656,-6.07596 -11.02202,-8.50634 -19.60759,-6.07596 z"
     id="path12"
     style="fill:#080c10;fill-opacity:1;stroke:none;stroke-width:0.118738" />
  <path
     d="m 1185.0223,759.65186 c -18.5634,5.46837 -31.7899,24.54689 -34.5744,50.43048 -0.8121,7.53419 1.0442,20.41523 3.7127,26.12664 5.453,11.4228 15.8949,17.13421 29.3534,16.16205 9.6297,-0.72911 16.591,-4.13165 24.7125,-11.90888 5.685,-5.58989 5.9171,-6.07596 4.0607,-8.02027 -1.8563,-1.94431 -2.3204,-1.82279 -7.7734,3.1595 -10.0938,8.74938 -22.7401,12.0304 -31.7898,8.02027 -4.9889,-2.06583 -10.79,-9.23546 -12.2982,-14.94687 -1.8564,-6.80507 -1.5083,-22.1165 0.5801,-29.65069 3.8287,-13.24559 10.5579,-23.93929 18.4473,-29.04309 9.0497,-5.83293 22.8562,-4.98229 29.7015,1.9443 2.6685,2.67343 3.8287,3.1595 5.3369,2.18735 3.2486,-2.18735 3.0166,-4.01013 -1.0441,-8.02027 -7.1934,-7.04811 -17.8673,-9.4785 -28.4252,-6.44052 z"
     id="path13"
     style="fill:#080c10;fill-opacity:1;stroke:none;stroke-width:0.118738" />
  <path
     d="m 783.82089,762.93288 c -0.81215,5.22533 -9.8618,84.21283 -9.8618,86.64321 0,1.33671 1.16021,1.82279 4.06074,1.82279 2.20441,0 4.06075,-0.36456 4.06075,-0.97215 0,-0.48608 1.27623,-11.54433 2.7845,-24.54689 3.01656,-25.76207 5.22096,-33.53931 13.1104,-45.93427 5.68504,-8.8709 12.41427,-12.88104 20.65178,-12.15192 6.14912,0.48608 6.14912,0.48608 6.72923,-3.1595 0.58011,-4.61773 -0.58011,-5.58988 -7.42536,-5.58988 -9.2817,0 -17.63522,7.29115 -25.64069,22.35953 -3.59666,6.9266 -3.71268,6.68356 -2.08838,-8.2633 1.27623,-11.42281 0.58011,-14.09623 -3.59666,-14.09623 -1.50827,0 -2.32042,1.21519 -2.78451,3.88861 z"
     id="path14"
     style="fill:#080c10;fill-opacity:1;stroke:none;stroke-width:0.118738" />
  <path
     d="m 1004.0292,761.35313 c -19.02751,7.16964 -34.57436,28.07094 -37.70693,50.79504 -3.24859,23.45321 5.91708,40.4659 21.81199,40.4659 10.09385,0 22.50814,-9.84306 31.32574,-24.91144 2.4364,-4.25317 3.9447,-5.95444 3.5966,-4.25317 -0.348,1.70127 -1.0441,8.62786 -1.5082,15.43294 l -0.8122,12.51648 h 3.7127 c 2.0884,0 3.5966,-0.6076 3.5966,-1.57975 0,-0.72912 2.0884,-19.5646 4.6409,-41.55958 2.6685,-22.1165 4.6408,-41.43805 4.4088,-43.13932 -0.232,-2.18735 -1.3923,-3.40254 -4.4088,-4.49621 -6.3812,-2.30887 -21.696,-1.82279 -28.6572,0.72911 z m 24.1324,5.83292 c 0.4641,0.48608 -0.1161,9.4785 -1.3923,19.80764 -2.0884,17.49877 -2.6685,19.68611 -7.5414,30.25829 -10.906,23.57473 -26.68483,33.66082 -38.05491,24.30384 -4.87289,-4.01013 -6.84526,-11.54432 -6.26515,-25.03296 0.34806,-10.69369 0.81215,-12.88104 4.52483,-21.02283 6.84525,-14.94686 16.35899,-24.30384 29.23733,-28.67853 4.9889,-1.70127 17.7513,-1.57975 19.4916,0.36455 z"
     id="path15"
     style="fill:#080c10;fill-opacity:1;stroke:none;stroke-width:0.118738" />
  <path
     d="m 1262.2924,761.96073 c -9.5137,4.01013 -14.1546,7.41267 -20.5358,14.70382 -11.37,13.00256 -16.591,26.4912 -16.707,43.13933 -0.116,13.48863 2.3204,21.5089 8.3535,27.22031 8.8176,8.26331 20.9998,7.16963 32.718,-2.91646 2.3204,-2.06583 6.9613,-7.89875 10.2099,-12.88104 l 5.801,-9.23546 -0.8121,8.8709 c -0.4641,4.98229 -0.9282,11.42281 -0.9282,14.46079 0,5.10381 0.232,5.46836 3.2486,5.83292 1.7403,0.24304 3.1326,0.24304 3.1326,0 0,-0.24304 2.3204,-20.05067 5.1049,-44.11148 3.8287,-32.44563 4.7569,-43.98996 3.8287,-44.59756 -6.3812,-4.25317 -24.1324,-4.61773 -33.4141,-0.48607 z m 25.4086,4.86077 c 0.2321,0.36455 -0.348,8.38482 -1.3922,17.98484 -2.3204,20.41523 -5.337,29.89373 -13.6905,42.89629 -8.5856,13.61015 -18.9115,19.5646 -28.0772,16.4051 -8.1214,-2.79495 -11.9501,-12.88104 -10.7899,-29.0431 1.8563,-28.31398 23.2042,-51.28111 45.9444,-49.45833 4.0607,0.36456 7.6574,0.97216 8.0054,1.2152 z"
     id="path16"
     style="fill:#080c10;fill-opacity:1;stroke:none;stroke-width:0.118738" />
  <path
     d="m 515.34779,803.03423 c -2.66849,23.57473 -5.10493,44.11148 -5.45299,45.56971 -0.46409,2.5519 0,2.79494 3.59665,2.79494 2.32043,0 4.29279,-0.72912 4.64085,-1.57975 0.23204,-0.72912 2.66849,-21.26586 5.453,-45.56971 l 5.10493,-43.98996 h -4.17676 -4.29279 z"
     id="path17"
     style="fill:#080c10;fill-opacity:1;stroke:none;stroke-width:0.118738" />
  <path
     d="m 1124.9233,761.71769 c -0.5801,2.06583 -9.8618,83.72675 -9.8618,87.00777 0,2.18734 0.6961,2.67342 4.0607,2.67342 2.2044,0 4.0607,-0.6076 4.0607,-1.21519 0,-1.94431 9.1657,-81.41789 9.8619,-86.03562 0.6961,-3.76709 0.5801,-3.88861 -3.4807,-3.88861 -2.3204,0 -4.2928,0.72911 -4.6408,1.45823 z"
     id="path18"
     style="fill:#080c10;fill-opacity:1;stroke:none;stroke-width:0.118738" />
  <path
     d="m 378.90684,897.81923 c -0.58011,2.06582 -7.54138,63.19 -7.54138,66.59253 0,1.82279 0.58011,2.43039 1.97236,2.18735 1.74032,-0.36456 2.55247,-4.73925 5.80106,-31.95956 4.40881,-37.18488 4.40881,-38.27855 2.08838,-38.27855 -1.04419,0 -1.97236,0.72911 -2.32042,1.45823 z"
     id="path19"
     style="fill:#080c10;fill-opacity:1;stroke:none;stroke-width:0.118738" />
  <path
     d="m 489.24302,899.03442 c -0.58011,3.03798 -3.01655,22.48106 -3.01655,24.30384 0,0.72912 -1.6243,-0.24303 -3.71268,-2.06582 -3.2486,-2.79494 -4.52483,-3.1595 -9.2817,-2.79494 -6.96127,0.72911 -12.18223,4.86076 -16.35899,12.88103 -8.81761,16.89118 -5.10494,35.48362 6.96127,35.48362 6.26515,0 13.34244,-5.10381 17.63523,-12.75952 1.16021,-2.06583 1.27623,-1.21519 1.04419,4.86077 -0.23204,5.7114 0,7.29115 1.39225,7.65571 1.50828,0.24304 2.43645,-4.86077 5.56902,-32.2026 4.29279,-37.18488 4.29279,-38.03551 1.97236,-38.03551 -0.92817,0 -1.97236,1.21519 -2.2044,2.67342 z m -6.26515,26.12663 c 2.08838,1.94431 2.32043,3.1595 1.74032,9.84306 -1.50828,16.89117 -12.18223,30.37981 -22.04403,27.70638 -10.09385,-2.5519 -6.49719,-30.13676 4.98891,-38.15703 4.75687,-3.40254 11.37008,-3.03798 15.3148,0.60759 z"
     id="path20"
     style="fill:#080c10;fill-opacity:1;stroke:none;stroke-width:0.118738" />
  <path
     d="m 895.31728,897.33315 c -0.23204,0.48608 -1.16021,6.80508 -1.97236,13.97471 l -1.50827,13.00256 -2.43645,-2.43039 c -2.90053,-2.91646 -9.39772,-4.37469 -13.92254,-3.1595 -4.64085,1.2152 -11.71815,8.62787 -14.38663,15.31143 -4.8729,11.78736 -4.64085,22.60257 0.5801,29.16461 2.43645,3.03798 3.8287,3.64558 7.88944,3.64558 5.80107,0 12.06621,-4.13166 15.77889,-10.32914 1.39225,-2.30886 2.66849,-4.25317 3.01655,-4.25317 0.23204,0 0.11602,3.28102 -0.34806,7.29115 -0.58011,6.19749 -0.34807,7.29116 1.16021,7.29116 1.16021,0 2.08838,-1.45823 2.55247,-4.01014 0.81215,-4.73925 7.54138,-62.82544 7.54138,-65.01278 0,-1.57975 -3.01656,-2.06583 -3.94473,-0.48608 z m -8.81761,26.36967 c 4.29279,2.30887 4.98891,4.86077 3.59666,13.97471 -3.13257,19.80764 -20.07167,33.17475 -26.2208,20.53675 -4.75687,-9.4785 1.39226,-29.77221 10.44191,-34.51146 4.40881,-2.30886 8.00547,-2.30886 12.18223,0 z"
     id="path21"
     style="fill:#080c10;fill-opacity:1;stroke:none;stroke-width:0.118738" />
  <path
     d="m 973.0515,900.85721 c -0.34806,2.5519 -1.97236,16.40509 -3.59666,30.74436 -1.62429,14.33927 -3.24859,28.19246 -3.59665,30.62285 -0.58011,4.13165 -0.34807,4.61773 1.74031,4.61773 1.39226,0 2.43645,-0.36456 2.43645,-0.85064 0,-1.57975 6.96127,-61.73176 7.54138,-65.7419 0.58011,-3.28102 0.34806,-3.88861 -1.6243,-3.88861 -1.74032,0 -2.43644,1.09367 -2.90053,4.49621 z"
     id="path22"
     style="fill:#080c10;fill-opacity:1;stroke:none;stroke-width:0.118738" />
  <path
     d="m 277.62031,899.27746 c -10.55793,3.64557 -19.37554,13.12407 -22.50811,24.30384 -2.2044,7.77723 -1.74032,23.57473 0.69613,28.67854 2.7845,5.46837 7.30933,10.69369 11.60212,13.00256 4.06074,2.18734 16.01093,2.43038 20.99984,0.36456 5.10493,-1.94431 11.02201,-6.44052 11.02201,-8.26331 0,-2.06583 -2.08838,-1.82279 -5.56901,0.72911 -11.95019,8.74939 -26.80091,5.83293 -32.71799,-6.44052 -5.80106,-11.90888 -3.01655,-30.3798 6.14913,-40.58742 8.12148,-8.8709 20.30371,-11.17977 30.28153,-5.58988 5.22096,2.91646 7.6574,3.03798 7.6574,0.60759 0,-0.60759 -2.32042,-2.5519 -5.22095,-4.25317 -6.26515,-3.88861 -15.43082,-4.86077 -22.3921,-2.5519 z"
     id="path23"
     style="fill:#080c10;fill-opacity:1;stroke:none;stroke-width:0.118738" />
  <path
     d="m 317.41559,899.5205 c -2.08838,2.18734 -1.85634,4.01013 0.81215,5.7114 2.43645,1.70127 5.56902,0.24304 5.56902,-2.67342 0,-3.64558 -3.94472,-5.46837 -6.38117,-3.03798 z"
     id="path24"
     style="fill:#080c10;fill-opacity:1;stroke:none;stroke-width:0.118738" />
  <path
     d="m 585.42461,899.27746 c -11.95019,4.01013 -19.02748,11.30129 -22.62414,23.57473 -8.00546,27.09879 5.91708,48.00009 29.23735,43.98996 6.0331,-0.97216 12.41427,-3.40254 15.77888,-5.83292 2.20441,-1.57975 4.98892,-24.54689 3.13258,-25.276 -0.81215,-0.36456 -4.52483,-0.48608 -8.23751,-0.24304 -5.453,0.24304 -6.84525,0.85063 -7.19332,2.43038 -0.34806,1.82279 0.46409,2.18735 5.68504,2.18735 h 6.03311 l -0.81215,6.319 c -0.34806,3.52406 -0.69613,7.53419 -0.69613,8.99242 0,3.64558 -7.19331,6.80508 -16.82307,7.41267 -6.96128,0.36456 -8.81762,0.12152 -12.76234,-2.30886 -12.06621,-7.41267 -14.61867,-30.50133 -4.87289,-45.56971 7.6574,-11.90889 23.20424,-16.04054 35.03841,-9.35698 4.06074,2.18734 5.91708,2.67342 6.84525,1.70127 1.85634,-1.94431 -4.17676,-6.80508 -10.44191,-8.38483 -6.26515,-1.70127 -11.4861,-1.57975 -17.28716,0.36456 z"
     id="path25"
     style="fill:#080c10;fill-opacity:1;stroke:none;stroke-width:0.118738" />
  <path
     d="m 736.36821,899.5205 c -1.04419,0.97215 -1.85633,2.18734 -1.85633,2.67342 0.11602,4.61773 7.30933,5.10381 7.88944,0.60759 0.46408,-3.64557 -3.59666,-5.95444 -6.03311,-3.28101 z"
     id="path26"
     style="fill:#080c10;fill-opacity:1;stroke:none;stroke-width:0.118738" />
  <path
     d="m 1092.5533,902.68 c -0.6961,4.25317 -7.6574,61.9748 -7.6574,63.55455 0,0.48608 6.9613,0.6076 15.4309,0.36456 14.6186,-0.36456 15.5468,-0.48608 21.6959,-4.13165 11.7182,-6.9266 17.4032,-18.34941 17.4032,-35.11906 0,-11.05825 -3.8287,-19.92915 -10.79,-24.6684 -4.4088,-3.03799 -5.685,-3.28102 -20.0716,-3.64558 l -15.4308,-0.48608 z m 27.7291,1.09367 c 2.4365,0.72911 6.1491,3.03798 8.2375,5.22533 10.674,11.17976 7.0773,38.76463 -6.2651,48.72921 -4.7569,3.40253 -5.6851,3.64557 -18.3314,4.01013 -12.1822,0.36456 -13.2264,0.24304 -13.2264,-1.82279 0,-2.91646 5.8011,-53.95454 6.3812,-56.02036 0.5801,-1.82279 16.707,-1.94431 23.2042,-0.12152 z"
     id="path27"
     style="fill:#080c10;fill-opacity:1;stroke:none;stroke-width:0.118738" />
  <path
     d="m 707.71097,911.18634 c -1.62429,8.74939 -1.62429,8.87091 -5.45299,9.23546 -4.52483,0.48608 -4.40881,3.03798 0.11602,3.64558 3.59666,0.48608 3.59666,-0.48608 1.39225,16.04054 -2.32042,17.86332 -2.2044,22.23802 0.58011,24.91144 2.78451,2.67342 8.46955,2.67342 12.29825,0 3.24859,-2.18735 3.8287,-4.98229 0.81215,-3.64558 -1.16022,0.6076 -3.8287,1.2152 -5.80106,1.57975 -5.22096,0.72912 -5.68504,-1.21519 -3.94473,-17.86332 2.32043,-22.1165 1.6243,-20.65827 9.16568,-21.02283 9.04966,-0.48608 9.74578,-3.40254 0.69613,-3.40254 h -6.61321 l 0.81215,-9.11394 c 0.69612,-7.41267 0.46408,-9.11394 -0.81215,-9.11394 -1.16021,0 -2.20441,2.79494 -3.2486,8.74938 z"
     id="path28"
     style="fill:#080c10;fill-opacity:1;stroke:none;stroke-width:0.118738" />
  <path
     d="m 1202.1934,908.75596 c -0.5801,3.52405 -1.2762,7.53419 -1.5083,8.8709 -0.232,1.82279 -1.3922,2.5519 -4.1767,2.79494 -4.6409,0.48608 -4.4088,3.03798 0.232,3.64558 2.7845,0.36456 3.0166,0.85063 2.4364,4.25317 -2.7845,18.10637 -3.5966,33.05323 -1.9723,35.72666 2.4364,4.01013 12.0662,3.88861 15.3148,-0.24304 1.9723,-2.55191 0.4641,-3.88862 -2.3204,-2.06583 -3.5967,2.30887 -8.1215,1.82279 -9.0497,-1.09367 -0.6961,-1.70127 2.0884,-32.81019 3.1326,-36.09121 0.116,-0.12152 3.0165,-0.24304 6.4972,-0.24304 4.8729,0 6.3811,-0.36456 6.3811,-1.82279 0,-1.45823 -1.5082,-1.82279 -6.4972,-1.82279 -6.3811,0 -6.4971,0 -5.801,-3.40254 1.8563,-10.81521 1.9723,-14.82534 0.232,-14.82534 -1.1602,0 -2.0884,2.06582 -2.9005,6.319 z"
     id="path29"
     style="fill:#080c10;fill-opacity:1;stroke:none;stroke-width:0.118738" />
  <path
     d="m 316.25538,919.69269 c -0.46408,1.82279 -5.22095,42.41021 -5.22095,45.20515 0,1.09367 0.92817,1.94431 2.08838,1.94431 1.85634,0 2.43644,-2.43039 4.64085,-22.23802 1.39225,-12.15192 2.55246,-23.08865 2.55246,-24.30385 0,-2.30886 -3.36461,-2.91646 -4.06074,-0.60759 z"
     id="path30"
     style="fill:#080c10;fill-opacity:1;stroke:none;stroke-width:0.118738" />
  <path
     d="m 344.10047,920.05725 c -14.85071,7.77723 -19.60758,34.63298 -8.00546,44.23299 4.87289,4.01014 15.77888,3.28102 21.81199,-1.45823 2.32042,-1.9443 4.17676,-4.25317 4.17676,-5.22532 0,-2.43039 -0.46408,-2.18735 -6.0331,1.9443 -7.77342,5.83293 -16.47501,4.86077 -20.07167,-2.43038 -4.52483,-9.11394 0.11602,-26.61271 8.70159,-32.56715 4.64085,-3.28102 11.37008,-3.1595 15.08276,0.36455 2.08838,2.06583 4.64085,1.57975 4.64085,-0.72911 0,-2.18735 -7.54138,-5.95444 -12.18223,-5.95444 -2.55247,0 -6.14913,0.85063 -8.12149,1.82279 z"
     id="path31"
     style="fill:#080c10;fill-opacity:1;stroke:none;stroke-width:0.118738" />
  <path
     d="m 401.29893,921.75851 c -13.22641,8.87091 -16.01092,33.29627 -4.87289,42.53173 3.48064,2.91647 12.76234,3.52406 17.05512,1.2152 8.23751,-4.49621 14.7347,-16.4051 14.7347,-27.34183 0,-16.89117 -13.57449,-25.276 -26.91693,-16.4051 z m 17.86727,3.64558 c 3.71268,3.40254 3.8287,4.01014 3.8287,12.51648 0,15.06839 -6.96127,25.276 -17.17114,25.276 -8.70159,0 -13.57448,-9.35698 -11.25406,-21.99498 3.01656,-16.40509 15.43083,-24.42536 24.5965,-15.7975 z"
     id="path32"
     style="fill:#080c10;fill-opacity:1;stroke:none;stroke-width:0.118738" />
  <path
     d="m 513.02737,920.90788 c -14.27061,7.41267 -19.02748,33.90386 -7.6574,43.26085 3.71268,3.03798 14.50265,3.64557 18.67941,1.09367 4.29279,-2.55191 8.58557,-6.68356 8.58557,-8.02027 0,-2.06583 -1.27623,-1.57975 -6.84525,2.30886 -6.61321,4.73925 -13.57448,4.98229 -18.21533,0.72912 -2.78451,-2.43038 -3.24859,-3.7671 -3.36461,-9.23546 v -6.44052 l 9.04965,-1.70127 c 14.38663,-2.5519 20.53576,-6.80508 20.53576,-14.21775 0,-4.61773 -1.16022,-6.68356 -4.75687,-8.62786 -4.64085,-2.55191 -10.09385,-2.30887 -16.01093,0.85063 z m 14.73469,2.91646 c 5.91709,4.25317 1.27624,11.66585 -9.16567,14.46079 -12.06621,3.03798 -13.80653,3.1595 -13.80653,0.85063 0,-3.64557 5.10494,-11.66584 9.16568,-14.46078 4.52483,-3.28102 10.09384,-3.64558 13.80652,-0.85064 z"
     id="path33"
     style="fill:#080c10;fill-opacity:1;stroke:none;stroke-width:0.118738" />
  <path
     d="m 635.31373,920.30028 c -1.85634,0.97216 -4.4088,2.79495 -5.68504,3.88862 -3.71268,3.40254 -7.88944,13.61015 -8.46955,20.77979 -1.27623,13.97471 4.29279,21.87346 15.43083,21.87346 6.96127,0 11.13803,-1.82279 15.43082,-6.56204 4.17676,-4.73925 2.08838,-5.22533 -4.06074,-0.85063 -6.96128,4.86076 -13.92255,5.1038 -18.5634,0.85063 -2.78451,-2.43038 -3.24859,-3.7671 -3.36461,-9.23546 v -6.44052 l 9.04965,-1.70127 c 9.97783,-1.70127 17.5192,-5.22533 19.37554,-8.74938 1.27624,-2.67343 1.50828,-7.41268 0.46409,-10.45066 -1.85634,-5.10381 -13.1104,-7.04811 -19.60759,-3.40254 z m 14.27061,3.52406 c 5.68504,4.13166 1.27624,11.30129 -8.70159,14.21775 -3.71268,0.97216 -8.70159,2.18735 -11.02201,2.55191 l -4.29279,0.85063 1.74032,-5.22533 c 3.94472,-11.66584 14.85071,-17.86332 22.27607,-12.39496 z"
     id="path34"
     style="fill:#080c10;fill-opacity:1;stroke:none;stroke-width:0.118738" />
  <path
     d="m 671.7444,921.0294 c -6.96128,4.86077 -8.93364,13.00256 -4.17677,17.49877 1.39226,1.45823 4.87289,3.52406 7.77342,4.73925 7.19332,2.79494 9.2817,5.10381 9.2817,9.4785 0,5.34684 -2.78451,8.8709 -8.12148,10.57217 -3.94473,1.21519 -5.10494,1.09367 -9.39772,-1.09367 -5.56902,-2.91646 -8.00547,-2.30887 -4.98892,1.09367 4.40881,5.10381 14.85072,5.10381 21.23189,0.12152 3.71268,-2.91646 6.49719,-9.96458 5.45299,-14.09623 -1.04419,-4.25317 -4.29278,-7.16964 -11.02201,-9.72154 -6.72923,-2.5519 -8.46955,-4.37469 -8.46955,-8.8709 0,-7.16964 10.44191,-11.42281 17.63523,-7.04812 3.71267,2.18735 4.64084,2.18735 4.64084,0 0,-0.97215 -1.50827,-2.5519 -3.48063,-3.64557 -4.98891,-2.67343 -11.71815,-2.30887 -16.35899,0.97215 z"
     id="path35"
     style="fill:#080c10;fill-opacity:1;stroke:none;stroke-width:0.118738" />
  <path
     d="m 735.32402,919.08509 c -0.92817,1.70127 -5.80106,46.66339 -5.10493,47.3925 0.34806,0.36456 1.39225,0.36456 2.32042,0 1.0442,-0.36456 2.32043,-7.16963 4.06075,-22.84561 1.39225,-12.27345 2.55246,-23.08866 2.55246,-23.93929 0,-1.57975 -3.01655,-2.06583 -3.8287,-0.6076 z"
     id="path36"
     style="fill:#080c10;fill-opacity:1;stroke:none;stroke-width:0.118738" />
  <path
     d="m 761.66084,920.54332 c -8.46955,5.34685 -13.22642,15.06839 -13.22642,26.73423 0,12.638 5.453,19.5646 15.3148,19.5646 6.38117,0 10.55793,-1.82279 15.08276,-6.9266 10.55793,-11.54432 10.44191,-34.1469 -0.23204,-39.8583 -4.64085,-2.55191 -12.53029,-2.30887 -16.9391,0.48607 z m 14.50265,3.1595 c 1.85634,0.97216 3.94472,3.40254 4.75687,5.46837 2.08838,5.22532 0.92817,17.62029 -2.2044,24.0608 -4.64085,9.60002 -15.19878,13.00256 -21.81199,7.04812 -2.78451,-2.5519 -3.24859,-3.88862 -3.59666,-11.54433 -0.46408,-7.53419 -0.11602,-9.4785 2.55247,-15.1899 4.87289,-10.32913 12.53029,-14.09623 20.30371,-9.84306 z"
     id="path37"
     style="fill:#080c10;fill-opacity:1;stroke:none;stroke-width:0.118738" />
  <path
     d="m 800.17989,919.20661 c -0.92817,1.70127 -5.68504,46.42035 -4.98892,47.14946 0.34807,0.48608 1.50828,0.48608 2.32043,0.12152 1.16021,-0.48608 1.97236,-3.64558 2.55246,-10.20761 1.16022,-13.61016 2.55247,-18.47093 7.0773,-25.03297 6.61321,-9.4785 16.24297,-12.0304 19.25952,-5.1038 1.27623,2.91646 0.46409,15.06838 -2.2044,35.48361 -0.58011,4.73925 -0.46409,5.22533 1.85634,5.22533 1.27623,0 2.43644,-0.6076 2.43644,-1.45823 0,-0.85064 0.81215,-8.62787 1.85634,-17.25573 2.08838,-17.86333 1.74032,-22.84562 -1.97236,-26.97727 -4.98891,-5.58989 -13.45846,-3.40254 -21.11586,5.46836 l -4.29279,4.98229 v -6.68356 c 0,-5.95444 -1.16021,-8.38482 -2.7845,-5.7114 z"
     id="path38"
     style="fill:#080c10;fill-opacity:1;stroke:none;stroke-width:0.118738" />
  <path
     d="m 919.56572,920.17876 c -8.93363,4.86077 -13.45846,13.00256 -14.27061,25.51904 -0.81215,14.33927 4.06074,21.14435 15.43082,21.14435 6.14913,0 11.83417,-2.43039 15.66287,-6.68356 3.24859,-3.64558 0.92817,-5.46836 -2.66849,-2.06583 -3.94472,3.7671 -7.19332,5.10381 -12.29825,5.10381 -6.14913,0 -10.32589,-3.76709 -11.83417,-10.81521 -1.39225,-6.80508 -0.34806,-8.14179 7.42536,-8.99242 14.15459,-1.82279 22.85618,-7.41268 22.85618,-14.82535 0,-8.50634 -11.4861,-13.24559 -20.30371,-8.38483 z m 13.22642,2.91647 c 4.87289,2.67342 3.71268,9.60002 -2.2044,12.75952 -4.06075,2.18734 -19.72361,5.95444 -20.65178,4.98228 -1.27623,-1.45823 5.91708,-14.09623 9.39772,-16.40509 3.94472,-2.67343 10.09384,-3.28102 13.45846,-1.33671 z"
     id="path39"
     style="fill:#080c10;fill-opacity:1;stroke:none;stroke-width:0.118738" />
  <path
     d="m 999.04025,919.57117 c -11.71814,4.86077 -18.56339,24.78992 -12.99437,37.914 3.01655,7.16963 7.6574,9.84306 16.01092,9.11394 12.0662,-1.09367 20.1877,-12.39496 20.1877,-28.19246 0,-9.84306 -2.3204,-15.1899 -8.0055,-18.3494 -3.9447,-2.06583 -10.7899,-2.30887 -15.19875,-0.48608 z m 12.06625,3.52406 c 4.6408,1.82278 6.8452,7.65571 6.2651,16.89117 -0.6961,13.61015 -7.6574,23.21017 -16.8231,23.21017 -7.88941,0 -11.95016,-5.22533 -11.95016,-15.55446 0,-17.13421 11.02202,-29.16461 22.50816,-24.54688 z"
     id="path40"
     style="fill:#080c10;fill-opacity:1;stroke:none;stroke-width:0.118738" />
  <path
     d="m 1039.8797,920.30028 c -6.2651,3.1595 -9.2817,12.75952 -5.685,17.74181 0.6961,1.09367 4.8729,3.64558 9.1657,5.58989 6.0331,2.79494 8.0054,4.37469 8.5855,6.80507 1.0442,4.49621 -1.5083,9.84306 -5.9171,12.03041 -4.9889,2.5519 -6.1491,2.43038 -11.6021,-0.48608 -5.453,-2.91646 -6.3812,-3.03798 -6.3812,-0.6076 0,2.67343 6.8453,5.83293 12.4143,5.71141 6.9613,0 12.5303,-4.01014 14.8507,-10.45066 2.7845,-7.65571 0.9282,-11.17977 -8.2375,-15.91902 -12.1822,-6.19748 -13.5745,-8.99242 -7.5413,-15.31142 3.9447,-4.01013 10.5579,-4.86077 14.9667,-1.57975 2.5525,1.82279 4.8729,1.45823 4.8729,-0.72911 0,-1.94431 -6.7293,-4.86077 -11.2541,-4.86077 -2.4364,0 -6.1491,0.97215 -8.2375,2.06582 z"
     id="path41"
     style="fill:#080c10;fill-opacity:1;stroke:none;stroke-width:0.118738" />
  <path
     d="m 1164.9506,920.17876 c -9.6298,4.3747 -16.127,12.75952 -18.5634,23.93929 -1.5083,7.53419 -0.3481,14.82535 3.1326,19.20004 2.3204,2.91646 3.8287,3.52406 8.0054,3.52406 4.0608,0 5.9171,-0.72912 9.2817,-3.88862 2.4365,-2.18734 5.337,-5.58988 6.4972,-7.65571 l 2.2044,-3.64558 -0.348,7.29116 c -0.2321,5.83292 0,7.29115 1.3922,7.29115 1.3923,0 2.2044,-4.73925 4.4088,-22.48106 2.4365,-21.14434 2.5525,-22.48105 0.5801,-23.93928 -2.6685,-2.06583 -11.6021,-1.94431 -16.591,0.36455 z m 13.2264,2.79495 c 1.3923,2.30886 -1.9724,20.41523 -4.8729,26.61271 -7.5414,16.16206 -20.5357,18.47092 -22.8562,4.01013 -1.7403,-10.57217 5.9171,-25.88359 15.0828,-30.01525 4.0607,-1.82279 11.7181,-2.18734 12.6463,-0.60759 z"
     id="path42"
     style="fill:#080c10;fill-opacity:1;stroke:none;stroke-width:0.118738" />
  <path
     d="m 1234.3313,921.0294 c -8.3536,5.34685 -12.6463,14.09623 -12.7624,25.76208 0,12.88103 5.453,20.05067 15.5469,20.05067 12.4143,0 21.4639,-10.57217 22.7401,-26.24815 0.6962,-9.11395 -2.3204,-16.89118 -7.7734,-20.29372 -4.7568,-2.91646 -12.5303,-2.67342 -17.7512,0.72912 z m 16.707,4.37469 c 3.7127,3.40254 3.8287,4.01014 3.8287,12.51648 0,15.06839 -6.9612,25.276 -17.1711,25.276 -8.7016,0 -13.1104,-8.74938 -11.138,-21.87346 2.4364,-16.16206 15.3148,-24.54688 24.4804,-15.91902 z"
     id="path43"
     style="fill:#080c10;fill-opacity:1;stroke:none;stroke-width:0.118738" />
  <path
     d="m 1276.679,920.54332 c -3.9447,2.55191 -7.3093,8.14179 -7.3093,12.03041 0,4.01013 4.4088,8.50634 10.4419,10.57217 12.7623,4.49621 13.4585,16.40509 1.0442,20.17219 -3.8287,1.21519 -4.9889,1.09367 -9.1657,-1.21519 -5.453,-2.91646 -8.1215,-2.30887 -5.1049,1.21519 4.4088,5.10381 16.2429,5.34685 21.5799,0.24304 5.569,-5.22533 7.1933,-13.85319 3.5967,-18.3494 -1.1602,-1.45824 -4.9889,-3.7671 -8.4696,-5.10381 -7.8894,-3.28102 -9.2817,-4.37469 -9.2817,-7.89875 0,-4.49621 1.1602,-6.68356 4.7569,-8.50635 4.2928,-2.43038 10.3259,-2.30886 13.6905,0.12152 3.5967,2.67342 5.685,0.48608 2.4365,-2.5519 -3.5967,-3.40254 -13.5745,-3.7671 -18.2154,-0.72912 z"
     id="path44"
     style="fill:#080c10;fill-opacity:1;stroke:none;stroke-width:0.118738" />
  <text
     xml:space="preserve"
     transform="scale(0.75)"
     id="text44"
     style="fill:none;fill-opacity:0;stroke-width:2;stroke-opacity:0.99537039;stroke:#000000;white-space:pre;shape-inside:url(#rect44)" />
  <path
     d="m 782.06155,905.50571 c -0.92314,1.38519 -2.65402,2.11589 -4.38491,4.82528 -1.27486,1.99559 5.44851,-1.60235 7.73139,-3.0347 2.84642,-1.78597 6.8521,-5.2636 1.07702,-4.13068 -2.90918,0.57065 -2.32714,0.81673 -4.4235,2.3401 z"
     id="path4-9-1"
     style="fill:#080c10;fill-opacity:1;stroke:none;stroke-width:0.0842873"
     sodipodi:nodetypes="csssc" />
</svg>
